<?xml version="1.0" encoding="UTF-8"?>
<svg width="450pt" height="450pt" version="1.0" viewBox="0 0 450 450" xmlns="http://www.w3.org/2000/svg" class="logo">
<g transform="translate(0 450) scale(.1 -.1)">
<path d="m1772 4127c-42-45-23-173 69-460 28-89 51-164 50-167-4-9-25-2-116 38-260 114-545 183-691 167l-66-7 7-36c19-104 172-260 363-371 181-105 413-191 535-199 69-4 89-1 175 28 153 52 207 104 217 212 12 126-62 348-173 517-60 91-203 244-262 280-45 27-81 27-108-2z"/>
<path d="m2400 3388c-2-67-23-171-37-187-10-10-33-40-51-65-48-64-117-96-234-108-51-5-94-11-96-12-4-4 77-31 243-82 259-78 426-159 537-261 37-35 71-63 76-63 15 0 70 100 103 190 19 52 23 85 24 165 0 87-3 106-25 149-53 104-208 208-381 255-62 17-159 28-159 19z"/>
<path d="m3055 2952v-137l-45-100c-105-237-349-412-715-513-112-31-204-51-300-66-392-63-458-85-626-212-59-45-163-170-211-255-44-76-88-214-88-273 0-69 34-138 101-205 45-46 87-76 204-148 62-38 173-80 290-109 84-21 377-30 501-15 151 18 304 44 304 52 0 4-13 23-30 41-16 18-30 36-30 40 0 5-19 6-42 2l-43-6 23 19c17 14 20 21 11 30-6 6-11 35-11 63 0 51-2 53-70 122-69 69-70 71-65 114 10 93 71 141 212 168 326 62 640 201 812 358 47 43 136 157 166 213 48 89 82 205 86 298 3 60-26 196-58 269-57 134-192 281-331 361l-45 26v-137zm-1458-1393c15-6 38-19 50-31 14-13 28-18 42-13 27 8 58-10 81-48 26-43 25-65-4-78-21-10-33-6-83 24-42 26-83 40-148 53-49 9-96 18-102 20-7 2-13 17-13 34 0 22 6 33 23 40 31 12 120 12 154-1z"/>
<path d="m3468 2046c-28-59-186-213-282-278-186-123-385-206-654-273-95-24-184-50-197-59-35-23-33-61 5-93 38-31 75-94 90-153 33-126 170-286 297-345 60-29 207-65 263-65 34 0 40 3 46 26 12 49-3 171-29 228-32 69-124 161-209 209-81 46-204 90-229 84-12-3-23 2-29 14-9 15-7 17 5 13 9-4 24 1 34 10 68 61 268-12 394-144 27-27 52-50 56-50 15 0 212 206 250 261 93 134 152 272 186 433 15 73 31 216 23 216-2 0-12-15-20-34z"/>
</g>
</svg>

